<svg aria-hidden="true" style="width:0;height:0;position:absolute;overflow:hidden" xmlns="http://www.w3.org/2000/svg"><defs><symbol id="icon-search" viewBox="0 0 32 32"><path d="m31.017 27.29-6.881-6.882c3.337-5.066 2.779-11.961-1.674-16.415-5.091-5.091-13.376-5.091-18.467 0s-5.091 13.375 0 18.467a13.015 13.015 0 0 0 9.233 3.818 13.05 13.05 0 0 0 7.181-2.144l6.881 6.881c.515.515 1.189.772 1.863.772s1.349-.257 1.863-.772c.477-.477.772-1.136.772-1.863s-.295-1.386-.772-1.863zM7.721 18.735c-3.037-3.037-3.037-7.978 0-11.014 1.518-1.518 3.512-2.277 5.507-2.277s3.989.759 5.507 2.277c3.036 3.036 3.037 7.976.002 11.012l-.002.002-.001.002c-3.038 3.035-7.977 3.034-11.013-.001z"/></symbol><symbol id="uparrow" viewBox="0 0 32 32"><path d="M16 32a3.692 3.692 0 0 1-3.692-3.692V3.693a3.692 3.692 0 0 1 7.384 0v24.615A3.692 3.692 0 0 1 16 32z"/><path d="M28.308 19.692a3.68 3.68 0 0 1-2.611-1.081L16 8.914l-9.697 9.697a3.693 3.693 0 0 1-5.222-5.222L13.388 1.082a3.691 3.691 0 0 1 5.221 0l12.308 12.307a3.693 3.693 0 0 1-2.611 6.303z"/></symbol><symbol id="up-arrow-icon" viewBox="0 0 32 32"><path d="M16 0C7.138 0 0 7.138 0 16s7.138 16 16 16 16-7.138 16-16S24.862 0 16 0zm0 27.077C9.846 27.077 4.923 22.154 4.923 16S9.846 4.923 16 4.923 27.077 9.846 27.077 16 22.154 27.077 16 27.077z"/><path d="m23.138 17.723-6.154-7.385c-.246-.246-.615-.492-.985-.492s-.738.123-.985.492L8.86 17.723l-.123.123c-.123.246-.123.369-.123.615 0 .369.246.862.615 1.108l2.092 1.231c.123.123.369.123.615.123.369 0 .615-.123.862-.369l2.215-2.585c.492-.615 1.354-.615 1.846 0l2.215 2.585c.246.246.492.369.862.369.246 0 .492 0 .615-.123l2.092-1.231c.369-.246.615-.615.615-1.108 0-.246 0-.369-.123-.615v-.123z"/></symbol></defs></svg>