<svg aria-hidden="true" style="width:0;height:0;position:absolute;overflow:hidden" xmlns="http://www.w3.org/2000/svg"><defs><symbol id="icon-search" viewBox="0 0 32 32"><path d="m31.017 27.29-6.881-6.882c3.337-5.066 2.779-11.961-1.674-16.415-5.091-5.091-13.376-5.091-18.467 0s-5.091 13.375 0 18.467a13.015 13.015 0 0 0 9.233 3.818 13.05 13.05 0 0 0 7.181-2.144l6.881 6.881c.515.515 1.189.772 1.863.772s1.349-.257 1.863-.772c.477-.477.772-1.136.772-1.863s-.295-1.386-.772-1.863zM7.721 18.735c-3.037-3.037-3.037-7.978 0-11.014 1.518-1.518 3.512-2.277 5.507-2.277s3.989.759 5.507 2.277c3.036 3.036 3.037 7.976.002 11.012l-.002.002-.001.002c-3.038 3.035-7.977 3.034-11.013-.001z"/></symbol></defs></svg>