
<svg aria-hidden="true" style="position:absolute;width:0;height:0;overflow:hidden" xmlns="http://www.w3.org/2000/svg">
  <defs>
<symbol id="icon-search" viewBox="0 0 32 32">
<path d="M31.017 27.29l-6.881-6.882c3.337-5.066 2.779-11.961-1.674-16.415h-0c-5.091-5.091-13.376-5.091-18.467 0s-5.091 13.375 0 18.467c2.546 2.546 5.889 3.818 9.233 3.818 2.506 0 5.011-0.715 7.181-2.144l6.881 6.881c0.515 0.515 1.189 0.772 1.863 0.772s1.349-0.257 1.863-0.772c0.477-0.477 0.772-1.136 0.772-1.863s-0.295-1.386-0.772-1.863v0zM7.721 18.735c-3.037-3.037-3.037-7.978 0-11.014 1.518-1.518 3.512-2.277 5.507-2.277s3.989 0.759 5.507 2.277c3.036 3.036 3.037 7.976 0.002 11.012l-0.002 0.002c-0.001 0-0.001 0.001-0.001 0.002l-0 0c-3.038 3.035-7.977 3.034-11.013-0.001z"></path>
</symbol>
<symbol id="uparrow" viewBox="0 0 32 32">
<path d="M16 32c-2.039 0-3.692-1.653-3.692-3.692v-24.615c0-2.039 1.653-3.692 3.692-3.692s3.692 1.653 3.692 3.692v24.615c0 2.039-1.653 3.692-3.692 3.692z"></path>
<path d="M28.308 19.692c-0.945 0-1.89-0.36-2.611-1.081l-9.697-9.697-9.697 9.697c-1.442 1.442-3.78 1.442-5.222 0s-1.442-3.78 0-5.222l12.307-12.307c1.442-1.442 3.78-1.442 5.221 0l12.308 12.307c1.442 1.442 1.442 3.78 0 5.222-0.721 0.721-1.666 1.081-2.611 1.081z"></path>
</symbol>
<symbol id="up-arrow-icon" viewBox="0 0 32 32">
<path d="M16 0c-8.862 0-16 7.138-16 16s7.138 16 16 16 16-7.138 16-16-7.138-16-16-16zM16 27.077c-6.154 0-11.077-4.923-11.077-11.077s4.923-11.077 11.077-11.077 11.077 4.923 11.077 11.077-4.923 11.077-11.077 11.077z"></path>
<path d="M23.138 17.723l-6.154-7.385c-0.246-0.246-0.615-0.492-0.985-0.492s-0.738 0.123-0.985 0.492l-6.154 7.385-0.123 0.123c-0.123 0.246-0.123 0.369-0.123 0.615 0 0.369 0.246 0.862 0.615 1.108l2.092 1.231c0.123 0.123 0.369 0.123 0.615 0.123 0.369 0 0.615-0.123 0.862-0.369l2.215-2.585c0.492-0.615 1.354-0.615 1.846 0l2.215 2.585c0.246 0.246 0.492 0.369 0.862 0.369 0.246 0 0.492 0 0.615-0.123l2.092-1.231c0.369-0.246 0.615-0.615 0.615-1.108 0-0.246 0-0.369-0.123-0.615v-0.123z"></path>
</symbol>
  </defs>
</svg>  