
<svg aria-hidden="true" style="position:absolute;width:0;height:0;overflow:hidden" xmlns="http://www.w3.org/2000/svg">
  <defs>
<symbol id="icon-search" viewBox="0 0 32 32">
<path d="M31.017 27.29l-6.881-6.882c3.337-5.066 2.779-11.961-1.674-16.415h-0c-5.091-5.091-13.376-5.091-18.467 0s-5.091 13.375 0 18.467c2.546 2.546 5.889 3.818 9.233 3.818 2.506 0 5.011-0.715 7.181-2.144l6.881 6.881c0.515 0.515 1.189 0.772 1.863 0.772s1.349-0.257 1.863-0.772c0.477-0.477 0.772-1.136 0.772-1.863s-0.295-1.386-0.772-1.863v0zM7.721 18.735c-3.037-3.037-3.037-7.978 0-11.014 1.518-1.518 3.512-2.277 5.507-2.277s3.989 0.759 5.507 2.277c3.036 3.036 3.037 7.976 0.002 11.012l-0.002 0.002c-0.001 0-0.001 0.001-0.001 0.002l-0 0c-3.038 3.035-7.977 3.034-11.013-0.001z"></path>
</symbol>
  </defs>
</svg>  